<?xml version="1.0" standalone="no"?>
<!DOCTYPE svg PUBLIC "-//W3C//DTD SVG 20010904//EN"
 "http://www.w3.org/TR/2001/REC-SVG-20010904/DTD/svg10.dtd">
<svg version="1.0" xmlns="http://www.w3.org/2000/svg"
 width="310.000000pt" height="125.000000pt" viewBox="0 0 310.000000 125.000000"
 preserveAspectRatio="xMidYMid meet">
<metadata>
Created by potrace 1.15, written by Peter Selinger 2001-2017
</metadata>
<g transform="translate(0.000000,125.000000) scale(0.100000,-0.100000)"
fill="#000000" stroke="none">
<path d="M1358 1196 c-24 -12 -56 -42 -73 -65 l-30 -43 -3 -186 c-3 -181 -2
-188 21 -232 15 -30 40 -55 72 -75 43 -27 59 -30 139 -33 80 -3 97 0 139 21
l47 24 47 -23 c25 -13 64 -24 85 -24 l38 0 0 64 c0 63 0 64 -30 70 -17 3 -42
17 -55 30 l-25 25 0 235 0 234 -164 1 c-153 0 -168 -2 -208 -23z m187 -121
c21 -8 39 -25 45 -40 6 -15 10 -85 10 -156 l0 -131 -30 -30 c-29 -28 -35 -30
-87 -26 -46 4 -61 10 -80 32 -22 26 -23 35 -23 168 l0 140 31 29 c36 33 79 38
134 14z"/>
<path d="M877 490 c-15 -12 -29 -36 -33 -55 -3 -20 -12 -35 -20 -35 -9 0 -14
-11 -14 -30 0 -20 5 -30 15 -30 12 0 15 -18 15 -100 l0 -100 35 0 35 0 0 99 0
99 35 4 c25 3 35 0 35 -10 0 -10 6 -12 18 -7 30 14 79 17 86 7 3 -5 -15 -15
-39 -21 -61 -15 -85 -41 -85 -91 0 -65 22 -79 125 -79 84 1 87 1 81 22 -3 12
-6 59 -6 105 0 75 -2 85 -25 107 -19 20 -34 25 -75 25 -28 0 -60 -5 -71 -10
-13 -7 -19 -7 -19 0 0 5 -13 10 -30 10 -33 0 -35 2 -20 31 8 14 17 18 34 13
19 -4 25 -1 30 21 4 14 4 30 1 35 -11 18 -81 11 -108 -10z"/>
<path d="M2190 325 l0 -185 35 0 35 0 0 185 0 185 -35 0 -35 0 0 -185z"/>
<path d="M118 470 c-98 -53 -107 -237 -15 -304 32 -23 137 -34 179 -17 23 9
26 14 19 38 -6 20 -13 27 -27 25 -10 -2 -38 -5 -62 -5 -38 -2 -48 3 -73 31
-23 26 -29 42 -29 78 0 39 5 51 35 81 32 32 40 35 78 30 23 -2 48 -6 56 -8 14
-4 36 50 25 60 -3 3 -38 7 -77 8 -57 3 -80 -1 -109 -17z"/>
<path d="M2338 448 c-17 -6 -28 -17 -28 -29 0 -12 -7 -19 -20 -19 -16 0 -20
-7 -20 -30 0 -23 4 -30 20 -30 18 0 20 -7 20 -78 0 -100 14 -122 76 -122 44 0
44 0 44 35 0 30 -3 34 -22 32 -22 -2 -23 2 -26 66 l-3 67 31 0 c27 0 30 3 30
30 0 27 -3 30 -30 30 -27 0 -30 3 -30 30 0 33 -2 33 -42 18z"/>
<path d="M359 385 c-27 -14 -59 -78 -59 -115 0 -41 31 -97 64 -115 50 -27 122
-16 158 24 23 26 28 40 28 86 0 66 -15 102 -51 121 -35 18 -106 17 -140 -1z"/>
<path d="M574 383 c3 -8 6 -66 6 -129 l0 -114 35 0 35 0 0 88 c0 91 8 112 42
112 28 0 38 -33 38 -119 l0 -81 35 0 35 0 0 95 c0 102 -14 149 -47 159 -10 3
-55 5 -101 5 -70 -1 -83 -3 -78 -16z"/>
<path d="M1220 370 c-51 -55 -49 -150 5 -200 20 -19 36 -24 74 -23 38 0 48 -2
44 -13 -10 -26 -55 -30 -105 -9 -27 11 -46 -44 -22 -62 24 -17 118 -16 153 2
41 21 50 55 53 202 l3 132 -89 0 c-86 0 -89 0 -116 -29z"/>
<path d="M1460 269 l0 -129 35 0 35 0 0 84 c0 75 2 87 21 100 12 8 28 12 35 9
10 -4 14 4 14 30 l0 36 -70 0 -70 0 0 -130z"/>
<path d="M1610 270 l0 -130 35 0 35 0 0 130 0 130 -35 0 -35 0 0 -130z"/>
<path d="M1768 384 c-38 -20 -58 -63 -58 -125 0 -45 4 -55 35 -86 34 -34 37
-35 100 -31 35 2 66 6 68 8 3 3 2 20 0 38 -4 26 -9 32 -22 26 -9 -4 -28 -9
-43 -11 -58 -10 -91 74 -47 118 18 18 29 20 64 16 40 -6 43 -5 48 21 3 15 0
30 -6 34 -20 13 -111 8 -139 -8z"/>
<path d="M1961 374 c-62 -52 -62 -156 1 -209 28 -24 39 -27 86 -23 40 4 60 11
78 30 52 51 50 155 -3 204 -38 35 -119 34 -162 -2z"/>
<path d="M2452 296 c3 -94 5 -107 27 -130 22 -23 30 -25 113 -25 75 1 89 3 84
16 -3 8 -6 66 -6 129 l0 114 -35 0 -35 0 0 -84 c0 -64 -4 -88 -16 -100 -18
-18 -23 -19 -44 -6 -11 7 -16 33 -18 100 l-4 90 -35 0 -35 0 4 -104z"/>
<path d="M2710 270 l0 -130 35 0 35 0 0 80 c0 66 3 83 20 100 11 11 26 17 35
14 12 -5 15 2 15 29 l0 36 -70 0 -70 0 0 -129z"/>
<path d="M2876 387 c-23 -17 -12 -72 13 -61 29 13 78 16 85 6 3 -5 -14 -15
-38 -21 -66 -16 -91 -41 -91 -91 0 -64 25 -79 131 -78 72 0 85 2 80 15 -3 8
-6 55 -6 104 0 82 -2 92 -25 114 -19 20 -34 25 -78 25 -29 0 -61 -6 -71 -13z"/>
</g>
</svg>
